PathFileType	4	(X/Y/Z)	C:/Users/opensim2020/Desktop/walking_exp_matlab/subject01_walking06_straight_01.trc	
DataRate	CameraRate	NumFrames	NumMarkers	Units	OrigDataRate	OrigDataStartFrame	OrigNumFrames	
100.00	100.00	6	43	mm	100.00	860	251	
Frame#	Time	LFHD			RFHD			LBHD			RBHD			C7			T10			CLAV			STRN			RBAK			LSHO			LUPA			LELB			LFRM			LWRA			LWRB			LFIN			RSHO			RUPA			RELB			RFRM			RWRA			RWRB			RFIN			LASI			RASI			LPSI			RPSI			LTHI			LKNE			LTIB			LANK			LHEE			LTOE			RTHI			RKNE			RTIB			RANK			RHEE			RTOE			*39			*40			*41			*42			
		X1	Y1	Z1	X2	Y2	Z2	X3	Y3	Z3	X4	Y4	Z4	X5	Y5	Z5	X6	Y6	Z6	X7	Y7	Z7	X8	Y8	Z8	X9	Y9	Z9	X10	Y10	Z10	X11	Y11	Z11	X12	Y12	Z12	X13	Y13	Z13	X14	Y14	Z14	X15	Y15	Z15	X16	Y16	Z16	X17	Y17	Z17	X18	Y18	Z18	X19	Y19	Z19	X20	Y20	Z20	X21	Y21	Z21	X22	Y22	Z22	X23	Y23	Z23	X24	Y24	Z24	X25	Y25	Z25	X26	Y26	Z26	X27	Y27	Z27	X28	Y28	Z28	X29	Y29	Z29	X30	Y30	Z30	X31	Y31	Z31	X32	Y32	Z32	X33	Y33	Z33	X34	Y34	Z34	X35	Y35	Z35	X36	Y36	Z36	X37	Y37	Z37	X38	Y38	Z38	X39	Y39	Z39	X40	Y40	Z40	X41	Y41	Z41	X42	Y42	Z42	X43	Y43	Z43	

95	0.940	1415.37268	-592.10590	1661.88123	1526.02637	-564.44012	1672.13220	1438.73450	-692.36407	1590.17175	1556.28613	-665.58893	1599.24023	1474.66602	-701.57880	1419.03333	1479.68359	-735.06470	1124.96997	1465.38293	-557.72864	1350.63379	1458.35181	-516.25385	1195.15564	1553.54980	-753.23187	1224.46021	1308.70447	-627.33289	1382.45422	1225.91931	-672.29114	1199.29370	1225.43604	-698.83832	1053.09045	1200.45898	-679.01569	941.72473	1221.02112	-627.34973	811.78351	1191.58179	-680.04974	819.43445	1189.15930	-648.63098	738.50842	1619.81177	-612.62726	1376.19092	1724.94788	-653.96216	1176.20508	1732.93225	-639.95947	1051.10144	1758.44226	-586.68744	940.30011	1731.77026	-485.31339	844.84644	1771.67590	-526.43237	834.49402	1770.04089	-471.71240	770.80139	1365.20923	-555.96844	925.20795	1582.55359	-560.43506	916.77991	1411.49646	-742.88824	933.94055	1556.53394	-744.36060	935.21106	1306.26208	-519.33795	604.63190	1326.88684	-498.70056	472.61188	1314.84863	-523.53558	283.71854	1369.77771	-525.71130	66.47528	1423.14111	-569.02673	37.62098	1360.37610	-378.09824	33.78894	1652.03748	-645.21460	588.89496	1642.32275	-666.80945	430.12582	1639.80786	-813.65808	327.27237	1600.29858	-955.33087	174.25656	1542.30872	-1004.05560	182.08595	1599.05481	-906.61761	36.52441	1506.24939	-587.90094	1701.31531	-3101.74414	1973.15393	1023.48431	-3140.59180	2012.56604	1021.98944			 
96	0.950	1412.78821	-582.75598	1662.76282	1523.41333	-555.27893	1673.17419	1436.13879	-682.96301	1590.84033	1553.71777	-656.32416	1600.14307	1472.46094	-691.82166	1419.89661	1477.80383	-725.27142	1125.82507	1463.33081	-548.06244	1351.59863	1456.60815	-506.53091	1196.06958	1551.91052	-743.44287	1225.54883	1306.65503	-617.32098	1383.32495	1223.59998	-661.06323	1200.09827	1223.24304	-686.19122	1053.42932	1198.70996	-664.65826	942.16272	1219.97180	-611.12805	813.03326	1190.26526	-663.63055	819.76453	1188.28247	-630.93732	739.46344	1617.64160	-602.96643	1377.39722	1723.19141	-645.34662	1177.72083	1730.39575	-632.84186	1052.36060	1756.06433	-581.15002	940.81219	1729.62537	-481.16150	843.82892	1769.56946	-522.50690	834.17670	1767.88306	-468.81302	769.51270	1363.21631	-546.36145	926.07898	1580.31177	-551.30432	917.48248	1410.12427	-733.53644	934.91443	1555.35596	-734.76135	935.62488	1304.62146	-513.32782	604.18890	1325.30591	-493.22763	472.18710	1314.66711	-521.65265	283.74890	1369.75586	-525.46942	66.40869	1423.12537	-568.94104	37.67203	1360.30090	-377.81305	33.47648	1651.24316	-627.95685	588.04968	1641.36475	-646.32617	429.50507	1638.98230	-795.25226	330.38629	1598.99817	-941.28589	182.12947	1540.95471	-989.15948	192.80688	1598.49512	-899.75159	41.92655	1503.54846	-578.73334	1702.29761	-3101.93164	1973.13257	1023.28253	-3140.75220	2012.51355	1021.93701			 
97	0.960	1410.31592	-573.43805	1663.61060	1520.98254	-546.05585	1674.18018	1433.65283	-673.58197	1591.62256	1551.24573	-647.04993	1601.07788	1470.22607	-682.43115	1420.80603	1475.89197	-715.62177	1126.76331	1461.44116	-538.50122	1352.59863	1455.06995	-496.87344	1196.99622	1550.17883	-733.91107	1226.66992	1304.70801	-607.24280	1384.19128	1221.45117	-649.74945	1200.71497	1221.03027	-673.70801	1053.64832	1196.87109	-650.11121	942.53156	1218.99817	-594.52258	814.43427	1188.88208	-646.86115	820.14539	1187.41211	-612.74500	740.27911	1615.53088	-593.41095	1378.57202	1721.64026	-636.71783	1179.29102	1727.90039	-625.76794	1053.57373	1753.73730	-575.80688	941.25848	1727.40088	-477.09808	842.80127	1767.47339	-518.53827	833.87799	1765.62439	-465.95056	768.26117	1361.45532	-537.06696	926.74921	1578.17590	-542.49847	918.17920	1408.87756	-723.88837	935.60376	1553.99878	-725.17499	935.74976	1303.16858	-507.77728	603.86694	1323.91211	-488.39233	471.87610	1314.62170	-520.03912	283.80292	1369.78528	-525.32819	66.44217	1423.08716	-568.94580	37.75773	1360.33057	-377.67679	33.27686	1650.11548	-610.85840	587.37158	1640.06519	-625.57111	429.06284	1638.35266	-776.46112	333.82343	1597.32483	-926.02173	190.33832	1539.04846	-973.47351	203.21860	1598.46814	-890.74921	48.19755	1501.00781	-569.61377	1703.28027	-3101.78101	1973.14246	1023.27148	-3140.49365	2012.53430	1021.98944			 
98	0.970	1408.00269	-564.07385	1664.54102	1518.63611	-536.91888	1675.26050	1431.26550	-664.13806	1592.35815	1548.93652	-637.83105	1602.05383	1468.09619	-672.93158	1421.65405	1474.00818	-706.17139	1127.67200	1459.63525	-528.93146	1353.61255	1453.68823	-487.37473	1197.93481	1548.29822	-724.44934	1227.80627	1302.85364	-597.17737	1384.97046	1219.03015	-637.97137	1201.43445	1218.83142	-661.15021	1053.89087	1195.14478	-635.39978	942.96368	1217.97119	-577.64337	816.00238	1187.60486	-629.91229	820.64844	1186.58179	-594.37177	741.60895	1613.64502	-584.06201	1379.69922	1720.15637	-628.04346	1180.75720	1725.47705	-618.84875	1054.79224	1751.48865	-570.45435	941.69641	1725.18079	-473.08997	841.79034	1765.36292	-514.67365	833.50079	1763.24585	-463.15677	766.95795	1359.82813	-527.76959	927.35999	1577.54358	-531.41455	920.24738	1407.57739	-714.66156	936.34546	1552.76160	-715.83685	935.89423	1301.90503	-502.46710	603.48859	1322.78125	-483.87622	471.41159	1314.57654	-518.24243	283.86032	1369.87805	-525.03809	66.46569	1423.22205	-568.91895	37.83871	1360.33984	-377.58267	33.19254	1648.62976	-593.73145	586.97717	1638.52991	-604.76593	428.99545	1637.66016	-757.18140	337.58508	1595.40039	-909.83276	198.39607	1536.93506	-957.09705	212.98895	1599.09595	-879.95392	54.71499	1498.60962	-560.44946	1704.28943	-3102.10718	1972.99866	1023.75201	-3140.65039	2012.50830	1021.90167			 
99	0.980	1405.80127	-554.70355	1665.35913	1516.52344	-527.74908	1676.31702	1429.04688	-654.76556	1593.17346	1546.71460	-628.64459	1603.07056	1466.15308	-663.33582	1422.63000	1472.10876	-696.78113	1128.69543	1458.07043	-519.48639	1354.52502	1452.42834	-477.94217	1198.82703	1546.26758	-715.10248	1228.91650	1301.12280	-587.15686	1385.77356	1216.81311	-626.51270	1202.14709	1216.60962	-648.39282	1054.11792	1193.17664	-620.37555	943.40643	1216.92163	-560.53308	817.70496	1186.25769	-612.70074	821.26630	1185.65808	-575.42932	742.82153	1611.85229	-574.71552	1380.82947	1718.75610	-619.46423	1182.26526	1723.15381	-611.86475	1055.91504	1749.27881	-565.16321	942.17639	1722.98535	-469.16388	840.82294	1763.34497	-510.72488	833.30353	1760.78223	-460.35745	765.68945	1357.94836	-517.56409	928.22406	1576.20117	-522.22040	921.37323	1406.36096	-705.65167	937.10229	1551.63293	-707.02216	936.25311	1300.83240	-497.32248	603.17664	1321.89063	-479.48502	470.90875	1314.59985	-516.15411	283.74191	1370.01416	-524.80133	66.74349	1423.34155	-568.80084	37.80915	1360.32080	-377.47583	33.10469	1647.01233	-576.81207	587.37494	1636.78162	-584.01184	429.58304	1636.58679	-737.66400	341.46021	1593.33167	-892.50995	205.46347	1534.44849	-939.46924	221.29344	1599.46362	-867.74084	60.69938	1496.43823	-551.18213	1705.34619	-3101.88794	1973.20459	1023.33990	-3140.65991	2012.54260	1021.97498			 
100	0.990	1403.81702	-545.28400	1666.25867	1514.49756	-518.60541	1677.35706	1426.97021	-645.23639	1593.89893	1544.65137	-619.44714	1604.08264	1464.26184	-654.02954	1423.76331	1470.16870	-687.59033	1129.79810	1456.63940	-510.08035	1355.47095	1451.23669	-468.61832	1199.69592	1544.11194	-705.78931	1229.95117	1299.48901	-577.16492	1386.57031	1214.70508	-614.81061	1202.83264	1214.40283	-635.81702	1054.30957	1191.42627	-605.45691	943.91254	1215.92651	-543.24670	819.64398	1184.86658	-595.25970	821.94904	1184.87805	-556.36444	744.31104	1610.23975	-565.44476	1381.89709	1717.26660	-611.01910	1183.62939	1720.90967	-604.90564	1057.09387	1747.13354	-559.91180	942.69098	1720.78821	-465.30896	839.93860	1761.26880	-506.88617	833.05554	1758.33057	-457.58063	764.51642	1356.79089	-509.27197	928.56580	1574.97278	-513.11188	922.56274	1405.15271	-696.76294	937.77563	1550.21155	-697.87122	936.05652	1299.94287	-492.07535	602.73816	1321.10181	-475.35181	470.40744	1314.50867	-513.50372	283.52158	1369.98743	-524.28064	66.64020	1423.19922	-568.90424	37.88779	1360.37280	-377.39722	33.00034	1645.48059	-560.23932	587.96765	1634.99170	-563.57526	430.70679	1635.15918	-718.06183	345.37509	1591.19348	-875.01550	212.13066	1531.41028	-921.39990	227.96880	1599.84741	-853.80096	66.94394	1494.32764	-542.11768	1706.38123	-3101.73071	1973.21838	1023.37463	-3140.61841	2012.50647	1022.02368			 
